Coordinates
version=1
nRows=24
nColumns=22
inDegrees=yes

Units are S.I. units (second, meters, Newtons, ...)
If the header above contains a line with 'inDegrees', this indicates whether rotational values are in degrees (yes) or radians (no).

endheader
time	pelvis_tilt	pelvis_list	pelvis_rotation	pelvis_tx	pelvis_ty	pelvis_tz	hip_flexion_r	hip_adduction_r	hip_rotation_r	knee_angle_r	ankle_angle_r	subtalar_angle_r	hip_flexion_l	hip_adduction_l	hip_rotation_l	knee_angle_l	ankle_angle_l	subtalar_angle_l	lumbar_extension	lumbar_bending	lumbar_rotation
      0.01000000	     -8.08125841	      1.47977185	    -32.55248007	     -1.43409566	      0.88499379	     -0.50385507	     11.80918568	     -0.74829304	      0.75462325	    -11.54015653	     12.49443392	      2.37630591	     10.76228924	     -7.94601689	     -3.21352399	    -15.69038664	     16.31872406	      4.66284235	      2.03841179	      2.04600785	     12.24980624
      0.02000000	     -8.08238340	      1.48224052	    -32.55991385	     -1.43409862	      0.88498400	     -0.50385409	     11.81223296	     -0.74999110	      0.75336647	    -11.53938927	     12.49522531	      2.37637159	     10.76441393	     -7.94576484	     -3.21194177	    -15.69105434	     16.31876722	      4.66333856	      2.03017660	      2.04496433	     12.24714054
      0.03000000	     -8.07678112	      1.48335933	    -32.56822031	     -1.43412207	      0.88497874	     -0.50386637	     11.81844620	     -0.75297752	      0.76255956	    -11.55551251	     12.49807441	      2.37795845	     10.77047556	     -7.94244173	     -3.20117380	    -15.71257524	     16.32575904	      4.66500290	      2.00943303	      2.04146133	     12.23451060
      0.04000000	     -8.07966876	      1.48561521	    -32.57778149	     -1.43413228	      0.88496605	     -0.50386532	     11.82293699	     -0.75299948	      0.76101597	    -11.55245906	     12.49935867	      2.37827620	     10.77479805	     -7.94410268	     -3.19827540	    -15.71397725	     16.32782384	      4.66499768	      1.99870409	      2.04115032	     12.23147961
      0.05000000	     -8.08103311	      1.47902009	    -32.58803852	     -1.43416310	      0.88495099	     -0.50386823	     11.82908790	     -0.74435650	      0.77586594	    -11.56600203	     12.50283457	      2.38212385	     10.79340596	     -7.95349120	     -3.17733172	    -15.75497089	     16.35185470	      4.66324928	      1.97837298	      2.04885910	     12.22013711
      0.06000000	     -8.08491911	      1.48114401	    -32.60095665	     -1.43417004	      0.88493748	     -0.50385049	     11.83373771	     -0.74235559	      0.77301313	    -11.56143450	     12.50389733	      2.38262314	     10.79926980	     -7.95641298	     -3.17429759	    -15.75776585	     16.35528404	      4.66289661	      1.96811911	      2.04912298	     12.21657744
      0.07000000	     -8.11894409	      1.45895435	    -32.60808856	     -1.43419831	      0.88488071	     -0.50383316	     11.85280822	     -0.69955379	      0.77668066	    -11.56211190	     12.50218962	      2.39433919	     10.85754865	     -8.00325106	     -3.17218307	    -15.83242326	     16.43091126	      4.65178150	      1.97242074	      2.09159106	     12.20110029
      0.08000000	     -8.12175343	      1.46152077	    -32.62329615	     -1.43418850	      0.88486845	     -0.50380028	     11.85582434	     -0.69825139	      0.77489512	    -11.55916482	     12.50199282	      2.39460827	     10.86147406	     -8.00477422	     -3.16763311	    -15.83636613	     16.43163424	      4.65165011	      1.96463498	      2.09154393	     12.19805927
      0.09000000	     -8.12901436	      1.45310105	    -32.63832663	     -1.43420432	      0.88484853	     -0.50377612	     11.86169446	     -0.68199378	      0.79808647	    -11.56597701	     12.49677150	      2.39832674	     10.88451311	     -8.02006415	     -3.15770049	    -15.88098102	     16.45694441	      4.64757549	      1.95144999	      2.10492199	     12.19616099
      0.10000000	     -8.13307317	      1.45558768	    -32.65364776	     -1.43418280	      0.88483553	     -0.50373775	     11.86433171	     -0.67985240	      0.79516099	    -11.56144722	     12.49740018	      2.39861661	     10.88682766	     -8.02197242	     -3.15751454	    -15.88304265	     16.46000806	      4.64707262	      1.94751590	      2.10624431	     12.19188124
      0.11000000	     -8.13675513	      1.45743821	    -32.66933402	     -1.43415161	      0.88482294	     -0.50369264	     11.86549208	     -0.67670331	      0.79450557	    -11.55810949	     12.49805388	      2.39906042	     10.88803350	     -8.02366794	     -3.15847228	    -15.88804192	     16.46449669	      4.64628164	      1.94610343	      2.10868106	     12.18639146
      0.12000000	     -8.16130507	      1.44414692	    -32.69346940	     -1.43414461	      0.88478512	     -0.50362385	     11.87177952	     -0.64305546	      0.82943288	    -11.54391453	     12.49312132	      2.40638470	     10.91834020	     -8.05984120	     -3.20826355	    -15.93388865	     16.52095973	      4.63134136	      1.95512245	      2.13820814	     12.18863240
      0.13000000	     -8.16344262	      1.44666171	    -32.70622354	     -1.43409735	      0.88477664	     -0.50357104	     11.87133463	     -0.64166519	      0.82846544	    -11.54274091	     12.49310093	      2.40650662	     10.91589171	     -8.05932276	     -3.20772179	    -15.93789600	     16.52082797	      4.63098363	      1.95653245	      2.13852935	     12.18338699
      0.14000000	     -8.16526631	      1.44906942	    -32.71899478	     -1.43404350	      0.88476938	     -0.50350979	     11.86936290	     -0.64001043	      0.82840619	    -11.54131503	     12.49360958	      2.40668053	     10.91282784	     -8.05891753	     -3.20888738	    -15.94284176	     16.52093492	      4.63040097	      1.95928035	      2.13850470	     12.17760602
      0.15000000	     -8.16706714	      1.45041909	    -32.73823845	     -1.43397754	      0.88476281	     -0.50342182	     11.85734663	     -0.63552930	      0.84954012	    -11.52456420	     12.50124676	      2.40857449	     10.90818734	     -8.06440335	     -3.24843766	    -15.95254754	     16.52813060	      4.62287768	      1.96323638	      2.14046451	     12.16331066
      0.16000000	     -8.16810465	      1.45192972	    -32.74995675	     -1.43390445	      0.88475541	     -0.50334512	     11.85320860	     -0.63364891	      0.84913256	    -11.52464207	     12.50139920	      2.40870320	     10.90183888	     -8.06490800	     -3.24701040	    -15.95883199	     16.52836955	      4.62229716	      1.96918351	      2.13976337	     12.16338371
      0.17000000	     -8.16968824	      1.45352377	    -32.76300180	     -1.43382974	      0.88474877	     -0.50326389	     11.84857380	     -0.63155002	      0.84928547	    -11.52336261	     12.50251549	      2.40887886	     10.89441960	     -8.06624496	     -3.24711415	    -15.96430677	     16.52918273	      4.62147599	      1.97539275	      2.13957450	     12.16386962
      0.18000000	     -8.15990682	      1.43527069	    -32.81527189	     -1.43377868	      0.88477518	     -0.50310607	     11.81113573	     -0.60630732	      0.91878356	    -11.49518124	     12.50563637	      2.41259109	     10.84839980	     -8.09119077	     -3.31742155	    -15.95795418	     16.55312942	      4.60023001	      1.95857854	      2.15158338	     12.21803718
      0.19000000	     -8.16099698	      1.43682739	    -32.82317168	     -1.43370676	      0.88477348	     -0.50303414	     11.80736944	     -0.60511738	      0.91777634	    -11.49571090	     12.50558955	      2.41255953	     10.84188643	     -8.09109271	     -3.31562719	    -15.96335298	     16.55246306	      4.59989211	      1.96543977	      2.15084972	     12.21698542
      0.20000000	     -8.16199122	      1.43817510	    -32.83135390	     -1.43363939	      0.88477258	     -0.50296246	     11.80335978	     -0.60368274	      0.91774922	    -11.49531866	     12.50623180	      2.41259422	     10.83616917	     -8.09172966	     -3.31382553	    -15.96921125	     16.55205637	      4.59932150	      1.97169991	      2.15021026	     12.21636655
      0.21000000	     -8.16257232	      1.43900756	    -32.83817865	     -1.43356951	      0.88477312	     -0.50289071	     11.79830242	     -0.60196315	      0.91915248	    -11.49464076	     12.50743232	      2.41272294	     10.83145319	     -8.09240566	     -3.31152245	    -15.97714390	     16.55199850	      4.59846470	      1.97783416	      2.14983183	     12.21621017
      0.22000000	     -8.16061715	      1.43445795	    -32.84291263	     -1.43351812	      0.88477215	     -0.50283425	     11.78082255	     -0.59656830	      0.93625768	    -11.47762604	     12.51774465	      2.41423025	     10.83863290	     -8.09683947	     -3.30358451	    -16.01360764	     16.55831569	      4.59101539	      1.97305989	      2.15291685	     12.22075800
      0.23000000	     -8.15946533	      1.42514051	    -32.83480814	     -1.43343964	      0.88477106	     -0.50278664	     11.76137092	     -0.58915748	      0.94489663	    -11.46774876	     12.51846881	      2.41711363	     10.84839636	     -8.10473958	     -3.29716843	    -16.05328938	     16.57575240	      4.57813956	      1.97026124	      2.16106399	     12.20933466
      0.24000000	     -8.15688427	      1.41852202	    -32.83156761	     -1.43337100	      0.88476430	     -0.50274921	     11.74724005	     -0.58552940	      0.94476726	    -11.46283173	     12.52051257	      2.42010671	     10.85979650	     -8.10880310	     -3.27826706	    -16.09556033	     16.58681003	      4.56958451	      1.96353187	      2.16796768	     12.20010401
